<?xml version="1.0" encoding="utf-8"?>
<!-- Generator: Adobe Illustrator 19.0.0, SVG Export Plug-In . SVG Version: 6.00 Build 0)  -->
<svg version="1.1" id="Layer_1" xmlns="http://www.w3.org/2000/svg" xmlns:xlink="http://www.w3.org/1999/xlink" x="0px" y="0px"
	 viewBox="0 0 200 200" style="enable-background:new 0 0 200 200;" xml:space="preserve">
<style type="text/css">
	.st0{fill:#269ED9;}
	.st1{fill:#FFFFFF;}
</style>
<rect id="XMLID_4_" x="0" class="st0" width="200" height="200"/>
<g id="XMLID_5_">
	<path id="XMLID_3_" class="st1" d="M126.4,93.3c5.5,0,10-4.5,10-10s-4.5-10-10-10c-5.5,0-10,4.5-10,10S120.9,93.3,126.4,93.3z"/>
	<path id="XMLID_6_" class="st1" d="M143.9,60H62.3c-3.2,0-5.8,2.6-5.8,5.9v68.1c0,3.2,2.6,5.9,5.8,5.9h81.6c3.2,0,5.8-2.6,5.8-5.9
		V65.9C149.7,62.7,147.1,60,143.9,60z M122.4,101.2c-0.6-0.7-1.6-1.3-2.7-1.3c-1.1,0-1.8,0.5-2.7,1.2l-3.9,3.3c-0.8,0.6-1.5,1-2.4,1
		c-0.9,0-1.7-0.3-2.3-0.9c-0.2-0.2-0.6-0.5-0.9-0.9L96.4,91.5c-0.8-1-2.1-1.6-3.5-1.6s-2.7,0.7-3.5,1.6l-26.3,31.8V69.1
		c0.2-1.4,1.3-2.4,2.7-2.4h74.5c1.4,0,2.6,1.1,2.7,2.5l0.1,54.2L122.4,101.2z"/>
</g>
</svg>
