<?xml version="1.0" encoding="utf-8"?>
<!-- Generator: Adobe Illustrator 19.0.0, SVG Export Plug-In . SVG Version: 6.00 Build 0)  -->
<svg version="1.1" id="Layer_1" xmlns="http://www.w3.org/2000/svg" xmlns:xlink="http://www.w3.org/1999/xlink" x="0px" y="0px"
	 viewBox="0 0 150 150" style="enable-background:new 0 0 150 150;" xml:space="preserve">
<style type="text/css">
	.st0{fill:#5F6566;}
	.st1{fill:#FFFFFF;}
</style>
<circle id="XMLID_1_" class="st0" cx="75" cy="75.5" r="73.3"/>
<g id="XMLID_3_">
	<path id="XMLID_4_" class="st1" d="M108.5,121.5c-5.8,2.1-17.4,5.5-31,5.5c-15.3,0-27.9-3.9-37.8-13.3
		c-8.7-8.4-14.1-21.9-14.1-37.6c0.1-30.1,20.8-52.2,54.7-52.2c11.7,0,20.8,2.6,25.2,4.6l-3.1,10.6c-5.4-2.4-12.1-4.3-22.3-4.3
		c-24.6,0-40.6,15.3-40.6,40.6c0,25.6,15.4,40.8,39,40.8c8.5,0,14.4-1.2,17.4-2.7V83.4H75.2V72.9h33.3V121.5z"/>
</g>
</svg>
